<svg width="64" height="64" fill="none" xmlns="http://www.w3.org/2000/svg"><g clip-path="url(#a)"><path d="M1.314 13.77h3.827v38.763H1.314V13.77Zm21.077 0c3.697 0 7.062.85 10.093 2.55 3.069 1.701 5.472 4.049 7.21 7.044 1.774 2.957 2.661 6.23 2.661 9.815 0 3.586-.887 6.858-2.662 9.816-1.737 2.958-4.14 5.287-7.209 6.987-3.068 1.701-6.47 2.551-10.204 2.551H6.808V13.77h15.583Zm.111 35.325c2.92 0 5.601-.702 8.041-2.107 2.44-1.405 4.363-3.31 5.768-5.712 1.441-2.44 2.162-5.14 2.162-8.097s-.72-5.656-2.162-8.096a15.717 15.717 0 0 0-5.879-5.768c-2.44-1.405-5.139-2.107-8.096-2.107H10.635v31.887h11.867Zm39.261-29.003a19.397 19.397 0 0 0-5.213-2.274c-1.885-.555-3.66-.832-5.324-.832-2.661 0-4.806.536-6.432 1.608-1.59 1.036-2.385 2.459-2.385 4.27 0 1.59.444 2.884 1.33 3.882.888.999 1.979 1.794 3.273 2.385 1.294.555 3.068 1.183 5.324 1.886 2.624.776 4.732 1.552 6.322 2.329a10.691 10.691 0 0 1 4.103 3.272c1.146 1.441 1.72 3.345 1.72 5.712 0 2.07-.592 3.9-1.775 5.49-1.146 1.59-2.773 2.828-4.88 3.715-2.108.85-4.53 1.276-7.265 1.276-2.699 0-5.342-.536-7.93-1.609-2.551-1.072-4.75-2.495-6.6-4.27l1.775-3.16a19.131 19.131 0 0 0 6.045 3.992c2.292.961 4.547 1.442 6.765 1.442 2.958 0 5.306-.592 7.043-1.775 1.738-1.22 2.607-2.846 2.607-4.88 0-1.626-.444-2.957-1.331-3.992a8.817 8.817 0 0 0-3.272-2.385c-1.294-.555-3.106-1.202-5.435-1.941-2.625-.813-4.732-1.571-6.322-2.274a11.02 11.02 0 0 1-4.048-3.216c-1.11-1.442-1.664-3.31-1.664-5.601 0-1.96.555-3.679 1.664-5.158 1.11-1.478 2.662-2.606 4.658-3.382 1.997-.814 4.307-1.22 6.932-1.22 2.108 0 4.215.314 6.322.942 2.144.629 4.03 1.46 5.657 2.496l-1.664 3.272Z" fill="#fff"/></g><defs><clipPath id="a"><path fill="#fff" d="M0 0h64v64H0z"/></clipPath></defs></svg>