<svg xmlns="http://www.w3.org/2000/svg" version="1.1" xmlns:xlink="http://www.w3.org/1999/xlink" xmlns:svgjs="http://svgjs.com/svgjs" width="92" height="58"><svg width="92" height="58" fill="none" xmlns="http://www.w3.org/2000/svg"><path d="M.8 1.08h5.52V57H.8V1.08Zm30.405 0c5.333 0 10.187 1.227 14.56 3.68 4.427 2.453 7.893 5.84 10.4 10.16 2.56 4.267 3.84 8.987 3.84 14.16s-1.28 9.893-3.84 14.16c-2.507 4.267-5.973 7.627-10.4 10.08-4.427 2.453-9.333 3.68-14.72 3.68H8.725V1.08h22.48Zm.16 50.96c4.213 0 8.08-1.013 11.6-3.04 3.52-2.027 6.293-4.773 8.32-8.24 2.08-3.52 3.12-7.413 3.12-11.68 0-4.267-1.04-8.16-3.12-11.68-2.08-3.52-4.907-6.293-8.48-8.32-3.52-2.027-7.413-3.04-11.68-3.04h-16.88v46h17.12ZM88.003 10.2c-2.294-1.44-4.8-2.533-7.52-3.28-2.72-.8-5.28-1.2-7.68-1.2-3.84 0-6.934.773-9.28 2.32-2.294 1.493-3.44 3.547-3.44 6.16 0 2.293.64 4.16 1.92 5.6 1.28 1.44 2.853 2.587 4.72 3.44 1.866.8 4.426 1.707 7.68 2.72 3.786 1.12 6.826 2.24 9.12 3.36 2.346 1.067 4.32 2.64 5.92 4.72 1.653 2.08 2.48 4.827 2.48 8.24 0 2.987-.854 5.627-2.56 7.92-1.654 2.293-4 4.08-7.04 5.36-3.04 1.227-6.534 1.84-10.48 1.84-3.894 0-7.707-.773-11.44-2.32-3.68-1.547-6.854-3.6-9.52-6.16l2.56-4.56c2.506 2.453 5.413 4.373 8.72 5.76 3.306 1.387 6.56 2.08 9.76 2.08 4.266 0 7.653-.853 10.16-2.56 2.506-1.76 3.76-4.107 3.76-7.04 0-2.347-.64-4.267-1.92-5.76-1.28-1.493-2.854-2.64-4.72-3.44-1.867-.8-4.48-1.733-7.84-2.8-3.787-1.173-6.827-2.267-9.12-3.28-2.294-1.067-4.24-2.613-5.84-4.64-1.6-2.08-2.4-4.773-2.4-8.08 0-2.827.8-5.307 2.4-7.44 1.6-2.133 3.84-3.76 6.72-4.88 2.88-1.173 6.213-1.76 10-1.76 3.04 0 6.08.453 9.12 1.36 3.093.907 5.813 2.107 8.16 3.6l-2.4 4.72Z" fill="#fff"></path></svg><style>@media (prefers-color-scheme: light) { :root { filter: none; } }
</style></svg>