<svg width="44" height="29" fill="none" xmlns="http://www.w3.org/2000/svg"><path d="M.22 1.181h2.648V28H.22V1.181Zm14.582 0c2.558 0 4.886.589 6.983 1.765 2.123 1.177 3.786 2.8 4.988 4.873 1.228 2.046 1.842 4.31 1.842 6.79 0 2.482-.614 4.746-1.842 6.792-1.202 2.046-2.865 3.657-4.988 4.834C19.662 27.412 17.31 28 14.725 28H4.022V1.181h10.781Zm.077 24.44c2.02 0 3.875-.486 5.563-1.458a10.756 10.756 0 0 0 3.99-3.952c.998-1.688 1.497-3.555 1.497-5.601s-.499-3.914-1.496-5.602a10.874 10.874 0 0 0-4.067-3.99c-1.689-.972-3.556-1.458-5.602-1.458H6.669v22.061h8.21ZM42.042 5.555a13.418 13.418 0 0 0-3.607-1.573c-1.304-.384-2.532-.575-3.683-.575-1.841 0-3.325.37-4.45 1.112-1.1.716-1.65 1.701-1.65 2.954 0 1.1.307 1.996.92 2.686a6.727 6.727 0 0 0 2.264 1.65c.895.384 2.123.819 3.684 1.305 1.816.537 3.274 1.074 4.373 1.61a7.398 7.398 0 0 1 2.84 2.265c.793.997 1.189 2.314 1.189 3.951 0 1.433-.41 2.699-1.228 3.799-.793 1.1-1.918 1.956-3.376 2.57-1.458.589-3.133.883-5.026.883-1.867 0-3.696-.371-5.487-1.113-1.765-.742-3.287-1.726-4.565-2.954l1.227-2.187A13.237 13.237 0 0 0 29.65 24.7c1.586.665 3.146.998 4.681.998 2.046 0 3.67-.41 4.873-1.228 1.202-.844 1.803-1.97 1.803-3.376 0-1.126-.307-2.046-.92-2.763a6.102 6.102 0 0 0-2.264-1.65c-.896-.383-2.149-.83-3.76-1.342-1.816-.563-3.274-1.087-4.374-1.573a7.626 7.626 0 0 1-2.801-2.226c-.767-.997-1.151-2.289-1.151-3.875 0-1.355.384-2.545 1.15-3.568.768-1.023 1.843-1.803 3.224-2.34 1.381-.563 2.98-.844 4.796-.844 1.458 0 2.916.217 4.374.652 1.483.435 2.788 1.01 3.913 1.726l-1.151 2.264Z" fill="#1C303C"/></svg>